<?xml version="1.0" encoding="UTF-8"?>
<svg xmlns="http://www.w3.org/2000/svg" xmlns:xlink="http://www.w3.org/1999/xlink" width="375pt" height="374.999991pt" viewBox="0 0 375 374.999991" version="1.2">
<g id="surface1">
<path style=" stroke:none;fill-rule:nonzero;fill:rgb(0%,62.348938%,71.759033%);fill-opacity:1;" d="M 333.332031 0 L 41.667969 0 C 18.644531 0 0 18.644531 0 41.667969 L 0 333.332031 C 0 356.355469 18.644531 375 41.667969 375 L 333.332031 375 C 356.355469 375 375 356.355469 375 333.332031 L 375 41.667969 C 375 18.644531 356.355469 0 333.332031 0 Z M 125 291.667969 L 72.4375 291.667969 L 72.4375 145.832031 L 125 145.832031 Z M 97.792969 119.105469 C 81.730469 119.105469 71 108.394531 71 94.105469 C 71 79.8125 81.707031 69.105469 99.5625 69.105469 C 115.625 69.105469 126.355469 79.8125 126.355469 94.105469 C 126.355469 108.394531 115.644531 119.105469 97.792969 119.105469 Z M 312.5 291.667969 L 261.625 291.667969 L 261.625 211.957031 C 261.625 189.917969 248.0625 184.832031 242.980469 184.832031 C 237.894531 184.832031 220.9375 188.230469 220.9375 211.957031 C 220.9375 215.355469 220.9375 291.667969 220.9375 291.667969 L 168.375 291.667969 L 168.375 145.832031 L 220.9375 145.832031 L 220.9375 166.1875 C 227.707031 154.3125 241.269531 145.832031 266.707031 145.832031 C 292.144531 145.832031 312.5 166.1875 312.5 211.957031 Z M 312.5 291.667969 "/>
</g>
</svg>
